<?xml version="1.0" encoding="utf-8"?>
<!-- Generator: Adobe Illustrator 26.0.1, SVG Export Plug-In . SVG Version: 6.00 Build 0)  -->
<svg version="1.1" id="Layer_1" xmlns="http://www.w3.org/2000/svg" xmlns:xlink="http://www.w3.org/1999/xlink" x="0px" y="0px"
	 viewBox="0 0 24 24" style="enable-background:new 0 0 24 24;" xml:space="preserve">
<g>
	<path d="M4,22c-1.1,0-2-0.9-2-2s0.9-2,2-2s2,0.9,2,2S5.1,22,4,22z M4,19c-0.6,0-1,0.4-1,1s0.4,1,1,1s1-0.4,1-1S4.6,19,4,19z"/>
	<path d="M4,24c-2.2,0-4-1.8-4-4V4c0-2.2,1.8-4,4-4c1.8,0,3.4,1.2,3.9,3h14.6C23.3,3,24,3.7,24,4.5v18c0,0.8-0.7,1.5-1.5,1.5H4z
		 M22.5,23c0.3,0,0.5-0.2,0.5-0.5v-18C23,4.2,22.8,4,22.5,4H8v16c0,1.2-0.5,2.2-1.4,3H22.5z M4,17c-1.7,0-3,1.3-3,3s1.3,3,3,3
		s3-1.3,3-3S5.7,17,4,17z M4,1C2.3,1,1,2.3,1,4v13.4C1.8,16.5,2.8,16,4,16s2.2,0.5,3,1.4V4C7,2.3,5.7,1,4,1z"/>
</g>
<path d="M15.5,11.6c-1.6,0-2.8-1.3-2.8-2.8s1.3-2.8,2.8-2.8s2.8,1.3,2.8,2.8S17,11.6,15.5,11.6z M15.5,6.7c-1.1,0-2.1,0.9-2.1,2.1
	s0.9,2.1,2.1,2.1s2.1-0.9,2.1-2.1S16.6,6.7,15.5,6.7z"/>
<path d="M14.1,21c-0.2,0-0.3-0.1-0.4-0.3l-0.4-2h-1.2c-0.2,0-0.4-0.2-0.4-0.4v-2.6c0-2.1,1.7-3.8,3.8-3.8s3.8,1.7,3.8,3.8v2.6
	c0,0.2-0.2,0.4-0.4,0.4h-1.2l-0.4,2c0,0.2-0.2,0.3-0.4,0.3c0,0-0.1,0-0.1,0c-0.2,0-0.3-0.2-0.3-0.4l0.5-2.3c0-0.2,0.2-0.3,0.4-0.3
	h1.1v-2.3c0-1.7-1.4-3-3-3s-3,1.4-3,3V18h1.1c0.2,0,0.3,0.1,0.4,0.3l0.5,2.3C14.5,20.7,14.3,20.9,14.1,21C14.1,21,14.1,21,14.1,21z"
	/>
</svg>
