<?xml version="1.0" encoding="utf-8"?>
<!-- Generator: Adobe Illustrator 25.4.1, SVG Export Plug-In . SVG Version: 6.00 Build 0)  -->
<svg version="1.1" id="Layer_1" xmlns="http://www.w3.org/2000/svg" xmlns:xlink="http://www.w3.org/1999/xlink" x="0px" y="0px"
	 viewBox="0 0 24 24" style="enable-background:new 0 0 24 24;" xml:space="preserve">
<g>
	<path d="M12.2,22.5c-0.1,0-0.2,0-0.2-0.1c-0.2-0.1-2.3-1.3-2.3-2.9c0-0.6,0.2-2,2.5-2s2.5,1.4,2.5,2c0,1.6-2,2.8-2.3,2.9
		C12.4,22.5,12.3,22.5,12.2,22.5z M12.2,18.5c-1.3,0-1.5,0.5-1.5,1c0,0.7,0.8,1.4,1.5,1.9c0.7-0.5,1.5-1.2,1.5-1.9
		C13.7,19,13.5,18.5,12.2,18.5z"/>
	<path d="M16.7,17.6c-0.2,0-0.4-0.1-0.6-0.2L14,16h-3.6l-2.1,1.4c-0.2,0.1-0.4,0.2-0.6,0.2c-0.3,0-0.5-0.1-0.7-0.3
		c-0.2-0.2-0.3-0.4-0.3-0.7v-2.8c0-0.9,0.5-1.8,1.4-2.2l0.5-0.3L7.7,8.1C7.4,6.8,7.9,5.5,8.9,4.6l2.8-2.3V1.5c0-0.3,0.2-0.5,0.5-0.5
		s0.5,0.2,0.5,0.5v0.8l2.8,2.4c1,0.8,1.5,2.2,1.2,3.5l-0.8,3.1l0.5,0.3c0.8,0.4,1.4,1.3,1.4,2.2v2.8c0,0.3-0.1,0.5-0.3,0.7
		C17.2,17.5,17,17.6,16.7,17.6L16.7,17.6z M8.5,12.4c-0.5,0.3-0.8,0.8-0.8,1.3v2.8l1.9-1.3l-0.8-3.1L8.5,12.4z M16.7,16.6v-2.8
		c0-0.6-0.3-1.1-0.8-1.3l-0.3-0.2l-0.8,3.1L16.7,16.6z M13.8,15l0.8-3H9.8L13.8,15z M14.9,11l0.8-3.1C15.9,7,15.6,6,14.9,5.4
		l-2.7-2.2L9.5,5.4C8.8,6,8.5,7,8.7,7.9L9.5,11H14.9z"/>
	<path d="M12.2,9.5c-1.1,0-2-0.9-2-2s0.9-2,2-2s2,0.9,2,2S13.3,9.5,12.2,9.5z M12.2,6.5c-0.6,0-1,0.4-1,1s0.4,1,1,1s1-0.4,1-1
		S12.8,6.5,12.2,6.5z"/>
	<path d="M2.7,24c-0.3,0-0.5-0.2-0.5-0.5c0-0.1,0-0.1,0-0.2c0-1.6,1.3-2.9,3-2.9l0,0l0,0c0-1.2,1.3-2,2.5-2C8,18.5,8.2,18.7,8.2,19
		S8,19.5,7.7,19.5c-0.7,0-1.5,0.4-1.5,1v0.1c0,0.3,0,0.3,0,0.3c0,0.1,0,0.3-0.1,0.4s-0.2,0.2-0.4,0.2H5.1c-1.1,0-1.9,0.8-1.9,1.9
		v0.1c0,0.1,0,0.3-0.1,0.4C3,24,2.8,24,2.7,24L2.7,24L2.7,24z"/>
	<path d="M21.2,24c-0.3,0-0.5-0.2-0.5-0.5v-0.1c0-1.1-0.9-1.9-1.9-1.9h-0.6c-0.1,0-0.3-0.1-0.4-0.2s-0.1-0.3-0.1-0.4
		c0,0,0-0.2,0-0.3v-0.1c0-0.6-0.8-1-1.5-1c-0.3,0-0.5-0.2-0.5-0.5s0.2-0.5,0.5-0.5c1.2,0,2.5,0.7,2.5,2h0.1c1.6,0,2.9,1.3,2.9,2.9
		c0,0,0,0.1,0,0.2C21.7,23.8,21.5,24,21.2,24L21.2,24z"/>
</g>
</svg>
