<?xml version="1.0" encoding="utf-8"?>
<!-- Generator: Adobe Illustrator 26.0.1, SVG Export Plug-In . SVG Version: 6.00 Build 0)  -->
<svg version="1.1" id="Layer_1" xmlns="http://www.w3.org/2000/svg" xmlns:xlink="http://www.w3.org/1999/xlink" x="0px" y="0px"
	 viewBox="0 0 24 24" style="enable-background:new 0 0 24 24;" xml:space="preserve">
<path d="M6,2C5.4,2,5,2.4,5,3v18c0,0.6,0.4,1,1,1s1-0.4,1-1c0,0,0,0,0,0V3C7,2.4,6.6,2,6,2C6,2,6,2,6,2z M18,2c-0.6,0-1,0.5-1,1v18
	c0,0.6,0.4,1,1,1s1-0.4,1-1c0,0,0,0,0,0V3C19,2.4,18.6,2,18,2C18,2,18,2,18,2z M9,7C8.4,7,8,7.4,8,8v8c0,0.6,0.4,1,1,1
	c0.6,0,1-0.4,1-1c0,0,0,0,0,0V8C10,7.4,9.6,7,9,7C9,7,9,7,9,7z M15,7c-0.6,0-1,0.5-1,1v8c0,0.6,0.4,1,1,1c0.6,0,1-0.4,1-1
	c0,0,0,0,0,0V8C16,7.4,15.6,7,15,7C15,7,15,7,15,7z M3,8.5c-0.6,0-1,0.5-1,1v5c0,0.6,0.4,1,1,1c0.6,0,1-0.4,1-1c0,0,0,0,0,0v-5
	C4,8.9,3.6,8.5,3,8.5C3,8.5,3,8.5,3,8.5z M21,8.5c-0.6,0-1,0.5-1,1v5c0,0.6,0.4,1,1,1c0.6,0,1-0.4,1-1c0,0,0,0,0,0v-5
	C22,8.9,21.6,8.5,21,8.5C21,8.5,21,8.5,21,8.5z M12,9.5c-0.6,0-1,0.5-1,1v3c0,0.6,0.4,1,1,1c0.6,0,1-0.4,1-1c0,0,0,0,0,0v-3
	C13,9.9,12.6,9.5,12,9.5C12,9.5,12,9.5,12,9.5z"/>
</svg>
