<?xml version="1.0" encoding="utf-8"?>
<!-- Generator: Adobe Illustrator 26.0.1, SVG Export Plug-In . SVG Version: 6.00 Build 0)  -->
<svg version="1.1" id="Layer_1" xmlns="http://www.w3.org/2000/svg" xmlns:xlink="http://www.w3.org/1999/xlink" x="0px" y="0px"
	 viewBox="0 0 284 287.6" style="enable-background:new 0 0 284 287.6;" xml:space="preserve">
<g>
	<path d="M97.2,9.7C132-2.1,171.6,0.3,204.4,17c4.6,2.4,4.8,9.5,0.7,12.4c-2.6,2.1-6.3,1.6-9.1,0.1C170,16.9,139.8,14,111.9,21
		c-27.7,6.7-53,23.2-70.2,46c-18.7,24.4-27.9,55.8-25.5,86.4c1.8,26.1,12,51.4,28.4,71.8c-0.1-8-0.2-15.9,0-23.9
		c0-4.2,4.2-7.6,8.2-6.9c3.8,0.4,6.6,4.1,6.3,7.8c0.1,11.7,0,23.5,0,35.2c-0.1,2.7,1,5.2,0.9,7.9c-0.4,3.9-4.2,6.8-8,6.6
		c-14-0.4-28,0-42-0.2c-4.6,0-7.9-4.9-6.8-9.2c0.7-3.2,3.6-5.7,6.9-5.7c8.3-0.1,16.6-0.1,25,0C14.9,213.4,3,183.2,1.3,152.3
		c-1.8-29.6,5.9-59.8,21.8-84.8C40.2,40.5,66.9,19.8,97.2,9.7L97.2,9.7z"/>
	<path d="M223,44.1c-0.4-4.3,3.6-8.1,7.8-7.8c13.8-0.1,27.6,0,41.3,0c3.4-0.3,6.9,1.7,7.9,5.1c1.7,4.6-2,10-6.9,9.9
		c-8.6,0.1-17.2,0-25.7,0.1c20.5,23.4,32.9,53.9,34.6,85c1.8,29.9-6.2,60.3-22.6,85.4c-17.1,26.5-43.5,46.8-73.4,56.7
		c-33.6,11.3-71.4,9.5-103.6-5.5c-3.4-1.6-7.9-3.3-8.3-7.6c-1-5.5,5.5-10.6,10.5-7.7c13.2,6.5,27.5,10.9,42.2,12.6
		c29.2,3.4,59.4-3.8,83.9-20c25.8-16.8,44.8-43.4,52.5-73.1c10.5-39,0.8-82.7-25.2-113.6c-0.1,7.7,0.1,15.4-0.1,23.2
		c0.1,4.1-3.9,7.7-8,7.3c-3.8-0.1-7-3.5-7-7.3C222.9,72.3,223,58.2,223,44.1L223,44.1z"/>
	<path d="M129.6,52.6c8-0.1,15.9,0,23.9,0c2.9,6.2,5.9,12.5,8.9,18.7c5.3,2,10.4,4.4,15.7,6.3c6.9-1.6,13.4-4.4,20.2-6.4
		c5.6,5.6,11.2,11.2,16.8,16.8c-2,6.8-4.8,13.4-6.4,20.3c1.1,3.8,3.6,7.1,4.6,10.9c0.7,1.8,0.9,4.2,2.9,5c5.9,2.9,11.8,5.7,17.7,8.6
		c0,7.9,0,15.8,0,23.7c-5.8,2.9-11.6,5.7-17.4,8.7c-2.3,0.9-2.4,3.6-3.2,5.5c-1,3.7-3.2,6.9-4.5,10.5c1.7,6.9,4.5,13.6,6.5,20.4
		c-5.7,5.6-11.3,11.2-16.9,16.9c-6.5-2.2-13-4.6-19.6-6.4c-3.8,0.6-6.9,3.3-10.7,4.3c-2.2,0.9-5.2,1.2-6.2,3.7
		c-2.9,5.7-5.7,11.5-8.6,17.3c-7.8-0.4-15.5,0.1-23.3-0.2c-4-5.8-6.1-12.9-10-18.8c-3-1.6-6.4-2.1-9.4-3.7c-2.6-1-5.3-3.2-8.2-2
		c-6,1.9-12,4-18,6c-5.5-5.8-11.2-11.4-16.9-17c2.1-6,4.1-12,6.1-18.1c1.1-2.8-1-5.3-2-7.8c-1.7-3.1-1.9-7-4.2-9.8
		c-5.8-3.7-12.8-5.8-18.3-9.8c0-7.7,0.1-15.5,0-23.2c5.7-2.8,11.3-5.5,17-8.3c3.1-1.2,3-5.2,4.3-7.8c1-3.7,4.7-7.1,3-11.1
		c-1.9-5.9-3.9-11.9-6-17.8c5.5-5.8,11.3-11.3,16.9-17c5.6,1.9,11.3,3.8,16.9,5.7c1.6,0.5,3.4,1.2,5,0.4c4.4-2.1,8.9-4.2,13.6-5.5
		C123.3,65.3,126.4,58.9,129.6,52.6 M135.2,62.1c-2.7,5.8-5.7,11.4-8.5,17.1c-7.3,1.9-14.1,5-20.8,8.5c-6.3-1.6-12.3-4.1-18.6-5.9
		c-2.6,2.6-5.3,5.1-7.8,7.7c-1.2,0.9-0.6,2.4-0.3,3.5c1.7,5.4,3.6,10.7,5.3,16.1c-3,5.5-5.7,11.1-7.5,17.1c-0.7,1.6-0.6,4-2.6,4.8
		c-5.3,2.5-10.5,5.1-15.8,7.6c-0.5,4.1-0.3,8.3-0.2,12.4c5.7,3,11.5,5.9,17.3,8.7c2.1,7.3,4.9,14.3,8.7,20.8
		c-2,6.2-4.2,12.4-6.2,18.6c2.8,3.1,5.8,6.1,8.9,8.9c6.2-2.1,12.5-4.2,18.8-6.2c6.5,4,13.8,6.6,21.1,8.9c3,5.8,5.5,11.9,9,17.4
		c3.9-0.1,7.8-0.1,11.7,0c3-5.8,5.9-11.6,8.8-17.5c7.5-1.9,14.4-5.2,21.2-8.7c6,1.9,12,4,17.9,6.1c3.3-2.6,6.2-5.7,9.1-8.8
		c-2.1-6.1-4.2-12.3-6.2-18.5c3.8-6.6,6.8-13.7,8.7-21.1c5.8-3,11.7-5.8,17.5-8.9c0-4,0-8.1,0-12.1c-5.8-3-11.9-5.5-17.6-8.7
		c-1.9-7.2-4.9-14.2-8.8-20.6c2-6.3,4.2-12.5,6.2-18.7c-2.8-3.1-5.7-6-8.8-8.8c-6.2,2-12.4,4.1-18.6,6.2c-6.6-3.9-13.8-6.2-20.9-8.8
		c-3.5-5.5-5.4-11.9-9-17.4C143.2,61.8,139.2,61.7,135.2,62.1L135.2,62.1z"/>
	<path d="M133.5,112c10.5-2.6,22.2,0.2,30.3,7.5c6,5.2,9.9,12.7,11.1,20.5c1.6,10.4-2,21.4-9.5,28.7c-7.2,7.5-18.1,11-28.3,9.6
		c-15.7-1.8-28.8-16.1-29.2-31.9C106.7,130.7,118.2,115.5,133.5,112 M135.6,121c-6.6,1.7-12.5,6.1-15.7,12.2
		c-3.1,5.5-3.6,12.3-2,18.3c2.4,7.9,8.9,14.4,16.8,16.8c7.7,2.1,16.5,0.4,22.6-4.8c6.2-5.1,9.5-13.3,8.6-21.3
		c-0.6-6.8-4.3-13.2-9.8-17.2C150.3,120.8,142.6,119.3,135.6,121L135.6,121z"/>
</g>
</svg>
