<?xml version="1.0" encoding="utf-8"?>
<!-- Generator: Adobe Illustrator 26.0.1, SVG Export Plug-In . SVG Version: 6.00 Build 0)  -->
<svg version="1.1" id="Layer_1" xmlns="http://www.w3.org/2000/svg" xmlns:xlink="http://www.w3.org/1999/xlink" x="0px" y="0px"
	 viewBox="0 0 272.8 319.6" style="enable-background:new 0 0 272.8 319.6;" xml:space="preserve">
<g>
	<path d="M5.2,17.2C7.2,8.8,15.3,2.6,23.9,2.8c74.6,0,149.3,0,223.9,0c9.5-0.3,18.6,7.5,19,17.1l0.4-2.8c0,93.3,0,186.7,0,280
		c-0.1,5.1-1.7,10.4-5.4,14c-2.4,2.6-5.7,3.9-8.8,5.4c-48.1,0.3-96.1,0-144.2,0.1c-30.1-0.1-60.1,0.1-90.2-0.1
		c-3.9-1.9-8.1-3.8-10.5-7.6c-3.9-5.4-3.8-12.4-3.6-18.8c0-86.3,0-172.7,0-259C4.5,26.5,4,21.7,5.2,17.2 M21.2,14.8
		c-1.5,1.6-3.6,2.9-4.1,5.1c-0.9,3.7-0.4,7.6-0.5,11.3c0,88.3,0,176.7,0,265c-0.1,3.3,1.2,7.2,4.7,8.2c2.8,0.5,5.7,0.2,8.6,0.3
		c73.8-0.1,147.7,0.1,221.5-0.1c1.8-2.1,3.8-4.5,3.7-7.4c0-91.4,0-182.7,0-274.1c0.4-3.6-2.3-6.2-4.7-8.4
		C174,14.9,97.6,14.9,21.2,14.8L21.2,14.8z"/>
	<path d="M155.2,38.7c24.9-0.3,49.7,0,74.5-0.2c2.1,0,4.3-0.1,6.4,0.4c2.5,1.2,4.4,3.7,5,6.4c0.2,4.5-3.8,8.8-8.4,8.4
		c-25.5,0-51,0-76.6,0c-2.4-1.9-5.6-4-5.2-7.5C150.5,42.9,153.2,40.8,155.2,38.7L155.2,38.7z"/>
	<path d="M35.3,43.7c2-0.3,4-0.6,6-0.1c0.3,30.6-0.1,61.3,0.2,91.9c29.4,0.1,58.9,0,88.3,0c1.8-0.1,4.9,0.2,4.5,2.8
		c0.5,2.6-2.7,2.9-4.5,2.8c-26.3,0-52.6,0-78.9,0c-5.2,0-10.3,0.1-15.5-0.3C35.2,108.4,35.3,76,35.3,43.7L35.3,43.7z"/>
	<path d="M122.2,52.4c2.7-1.9,5.6-3.8,8.3-5.7c-0.1,3.8-0.4,7.5-1.2,11.2c-0.6,0-1.8,0-2.4,0.1c-7.1,12.8-15,25.2-22.2,38
		c-5.2-0.4-10.1-2.3-15-4.1c-0.6,0-1.3,0-1.9,0c-3.5,7.5-7.1,15-10.8,22.4c-7.1-1-13-5.8-20-6.9c-1.7,3.9-3.6,7.7-5.6,11.5
		c-2.5,4.6-4.2,9.7-7.9,13.6c-0.2-3.4-0.2-6.8-0.1-10.2c4.1-7.1,7.4-14.7,11.5-21.8c6.2,1.8,12.1,4.5,17.9,7.3c0.7,0,1.3-0.1,2-0.1
		c3.1-7.6,6.7-15,10.7-22.1c3.5,0.9,6.9,2,10.4,3.1c0.5,0.2,1.5,0.8,2,1c1.6,0,3.2,0.2,4.7,0.4c5.9-11.6,13-22.6,19.6-33.8
		C122.1,54.8,122.2,53.6,122.2,52.4L122.2,52.4z"/>
	<path d="M125.9,64.9c0.6-0.1,1.8-0.4,2.4-0.6c-0.1,22.8,0,45.6-0.1,68.4c-4,0.1-8.1,0.1-12.1,0.1c0-17.2-0.2-34.4,0.1-51.5
		C119.7,76,123.1,70.6,125.9,64.9L125.9,64.9z"/>
	<path d="M151.1,93.2c-0.9-4.4,3.1-8.9,7.5-8.5c25.8,0,51.7-0.1,77.5,0.1c1.4,1.3,2.8,2.5,4.2,3.7c0.1,2.4,0.1,4.8,0.1,7.2
		c-1.5,1.3-2.9,2.7-4.4,4c-26.6,0.1-53.1,0-79.7,0.1C154,98.1,151,96.4,151.1,93.2L151.1,93.2z"/>
	<path d="M109,93.9c0.4-0.1,1.1-0.4,1.5-0.6c0,13.2,0,26.3,0,39.5c-3.8,0-7.6,0-11.3,0c-0.1-11.4,0-22.9,0-34.3
		c2.2,0.1,4.3,0.1,6.5,0.2C106.7,97.1,107.8,95.5,109,93.9L109,93.9z"/>
	<path d="M88.8,95.6c1.5,0,3,0,4.4,0.1c0.2,12.4,0,24.7,0.1,37.1c-4,0-8.1,0-12.1,0c0.2-6.9-0.3-13.8,0.2-20.7
		C83.4,106.4,86.8,101.3,88.8,95.6L88.8,95.6z"/>
	<path d="M64.1,113c4.1,1.4,8.1,3,12.1,4.8c-0.1,5-0.1,10,0,14.9c-4,0.1-8.1,0.1-12.1,0.1C64.1,126.2,64.1,119.6,64.1,113L64.1,113z
		"/>
	<path d="M47.5,132.7c3.2-7.5,7.3-14.6,10.8-21.9c0.2,7.3,0.1,14.7,0.1,22C54.8,132.8,51.2,132.8,47.5,132.7L47.5,132.7z"/>
	<path d="M151.1,137.2c0.2-3.8,3.9-6.8,7.6-6.5c25.8,0,51.6,0,77.4,0c1.4,1.3,2.9,2.7,4.3,4c0,2.5,0,5.1,0,7.6
		c-2.2,1.7-4.5,3.8-7.6,3.4c-25.8,0-51.6,0.1-77.4-0.1C152.9,143.6,150.2,140.9,151.1,137.2L151.1,137.2z"/>
	<path d="M33,190.3c0.5-4.2,2.7-9.2,7.6-9.3c24.7-0.2,49.5,0,74.2-0.1c3.4-0.2,7,1.7,8.3,4.9c0.4,2,0.2,4,0.2,5.9
		c-1.3,1.3-2.7,2.6-4,3.9c-3.5,0.3-7,0.9-10.6,0.9c-20.3,0-40.7,0-61,0c-3.3,0-6.5-0.6-9.8-0.8C36.3,194,34.6,192.2,33,190.3
		L33,190.3z"/>
	<path d="M154.2,193.5c9.1-8.2,21.3-12.2,33.4-12.8c0.8,5.2,0.5,10.4,0.5,15.6c0,11.9,0,23.7,0,35.6c-17,0.1-34.1,0.1-51.1,0
		c0.1-3.9,0.2-7.7,0.7-11.5C140.6,210.1,146,200.4,154.2,193.5 M157.1,195.5c-8.6,6.9-14.1,17.1-16.4,27.7c-0.1,1.8-0.3,3.6-0.5,5.4
		c14.7,0.1,29.5,0,44.2,0c0.1-14.7,0.1-29.5,0-44.2C174.4,185.1,164.7,189.1,157.1,195.5L157.1,195.5z"/>
	<path d="M193.3,186.5c4.6-0.1,9.1,0.4,13.6,1.4c9.1,2.9,17.8,7.7,24.3,14.9c7.8,8.7,12.5,20,13.3,31.7c0,3.6-0.1,7.1-0.4,10.7
		c-0.4,1.7-0.8,3.4-1.1,5c-0.3,1.1-0.6,2.1-0.9,3.2c-0.5,1.2-0.9,2.4-1.4,3.7c-6.6,15.5-21.1,27.5-37.8,30.5
		c-6.7,0.6-13.5,0.4-20.2,0c-3.6-1.1-7.2-2.3-10.8-3.4c0.4-2.6,1.2-5.1,2.3-7.4c5.1-10.7,10.4-21.3,15.5-32
		c1.6-3.4,3.9-6.7,3.6-10.6C193.3,218.3,193.3,202.4,193.3,186.5L193.3,186.5z"/>
	<path d="M37.4,228c3.2-1.6,6.9-1.1,10.3-1.2c22.4,0,44.7,0,67.1,0c3.5-0.3,6.8,1.9,8.3,4.9c0.5,2.5,0.8,5.6-1.2,7.5
		c-2.2,2.7-5.8,3.3-9.1,3.2c-19.7-0.1-39.3,0-59,0c-6,0-12.4,0.7-18-2c-0.7-1.4-1.5-2.8-2.3-4.2c0-0.8-0.1-2.4-0.2-3.1
		C34.6,231.4,35.4,229.1,37.4,228L37.4,228z"/>
	<path d="M135,239.6c16.9,0.1,33.8-0.1,50.7,0.1c-4.2,9.2-8.8,18.3-13.1,27.5c-2.9,6.1-5.9,12.2-8.8,18.3c-11.9-5-21-15.5-25.9-27.3
		C135.5,252.3,134.8,245.9,135,239.6L135,239.6z"/>
	<path d="M35.8,275c2.6-1.1,5.2-2.1,8-2c23.7,0,47.3,0,71,0c4.4-0.2,9.3,3.5,8.6,8.3c0.3,3.4-3,5.3-5.2,7.4
		c-26.1-0.1-52.3,0.1-78.4-0.1c-0.9-0.4-1.8-0.8-2.8-1.1c-0.8-0.9-1.7-1.7-2.6-2.6c-0.3-0.9-0.7-1.8-1.1-2.7c0-0.7-0.1-2.2-0.1-2.9
		C34.2,277.8,35,276.4,35.8,275L35.8,275z"/>
</g>
</svg>
