<?xml version="1.0" encoding="utf-8"?>
<!-- Generator: Adobe Illustrator 26.0.1, SVG Export Plug-In . SVG Version: 6.00 Build 0)  -->
<svg version="1.1" id="Layer_1" xmlns="http://www.w3.org/2000/svg" xmlns:xlink="http://www.w3.org/1999/xlink" x="0px" y="0px"
	 viewBox="0 0 307.5 361.9" style="enable-background:new 0 0 307.5 361.9;" xml:space="preserve">
<g>
	<path d="M150.1,3.9c2.7-0.9,7.1-0.1,7,3.5c0.3,12,0,24,0.2,36c1.7,9.1-8.2,12.4-10,3C148.1,38.4,144.3,6.7,150.1,3.9z"/>
	<path d="M246.1,38c6.2-2.6,9.5,5,5.2,9.2c-5.9,5.6-21,29.8-26.9,29.9c-5.9,0.4-5.8-7-2.4-10.1C230.4,57.6,237.5,47,246.1,38
		L246.1,38z"/>
	<path d="M54.8,40.2c4.8-3.5,22,24.2,27.2,28.5c8.1,7.4-0.8,16.6-7.4,7.3c-7-9-14.3-17.7-21.4-26.6C50.2,46.3,50.4,42,54.8,40.2z"/>
	<path d="M143,69.5c58.8-8.6,111.6,51.1,96.6,108.4c-6.8,27-28.2,47.4-34.6,74.5c-3.4,14.6-0.5,32.9-15.7,41.6
		c-14.3,7.3-41,2.2-57.9,3.6c-12.5,1-23.7-9.4-26.4-21.3c2.3-45.3-36.3-70.8-39.1-113C61.8,118,98,74.7,143,69.5 M98.3,105
		C82,121.5,75.5,145.3,78.1,168c5.9,32.9,34.4,57.4,37.8,91.3c-1.1,19.1,3.1,28.6,24.1,26.5c-1.3-24.5,2.5-50.1-2.8-74
		c-5.2-11.4-10.4-22.8-15.4-34.3c-3.7-7.7-14.3-18.8-3.3-25.3c5,3.7,5.6,10.2,7.1,15.8c1.3-0.4,2.7-0.8,4-1.3
		c0.1-3.3,1.4-6.4,3.9-8.6c3.3,2.2,4.2,6.1,4.5,9.9c1.6-0.7,3.3-1,5-0.8c0.9-10.7,7.8-11.2,8.4-0.2c2.1-0.1,4.2-0.2,6.3-0.1
		c0.3-2.4,0.1-5,1.4-7.1c1.5-0.3,3.2-0.3,4.6,0.2c1,2.6,1.1,5.6,2.9,7.9c1.7-0.2,3.4-0.7,5.1-1.2c0.4-2.8,0.5-6,2.8-8.1
		c4.1,0.5,4.2,5,4.9,8.2c1.5,0.1,3,0.2,4.5,0.2c2.1-21.2,17.3-15.4,8.9,1.6c-9.9,11.8-13.3,27.8-20.4,41.3c-4,8.2-2,17.6-2.6,26.4
		c-0.7,16.5-0.5,33-0.7,49.5c29.4,3.6,18.7-25.2,26.6-43c4.5-13.6,12.1-25.8,19.2-38.1C269.6,125.7,166.4,36,98.3,105 M127.6,173.6
		c5.2,12.7,11.4,25,16.7,37.7c2.3,5.3,1.8,11.2,1.9,16.9c-0.2,19.2,0.6,38.4,0.7,57.6c5.1-0.2,10.2,0,15.3-0.1
		c0.3-21.8,1-43.6,0.9-65.5c1.8-16.5,12.5-30.8,17.8-46.4c-3.9-2.2-7.5-1.5-11.5-0.1c-3.5,0.6-6.8-1.6-10.2-0.9
		c-3,0.6-6.1,0.8-9.1,0.1c-4.3-1-8.6,1.9-12.9,0.5C133.8,172.4,130.6,172.6,127.6,173.6L127.6,173.6z"/>
	<path d="M5,132.7c1.8-1.5,4.1-0.4,6.1,0c12.2,4.2,25.6,6.1,37.2,11.7c2.8,3.1-0.2,9.3-4.6,8.2c-13.1-4.6-28.7-6-40.6-13
		C2.6,137.2,2.3,133.9,5,132.7z"/>
	<path d="M295.9,132.9c5.8-2.6,11.2,0.9,8.6,7.3c-12.2,5.7-25.9,7.7-38.6,12c-2.3,0.8-4.7-0.2-7-0.6c-0.1-2.2-0.4-4.5,0-6.7
		C270,138.6,283.9,137.3,295.9,132.9z"/>
	<path d="M59.8,214.1c8.1-2.7,10.3,8.5,1.9,10.1c-7.7,1.5-34.3,15.3-38.6,11.6c-3.4-2.3-2.2-7.9,1.7-9
		C36.4,222.5,48.2,218.3,59.8,214.1z"/>
	<path d="M243.7,214c2-0.8,4.1,0.1,6,0.7c10.4,3.9,20.8,7.6,31.2,11.3c8.6,1.6,7.2,12.7-1.3,10.4c-10.9-3.9-21.7-8.1-32.7-11.9
		C241.5,223.5,238,217.4,243.7,214L243.7,214z"/>
	<path d="M121.5,302.8c21-0.4,42-0.1,63-0.2c4.8-0.5,7.3,5.9,4.4,9.2c-1.6,1.9-4.1,2.1-6.4,2c-19.4-0.1-38.8,0-58.2,0
		C117.5,315.3,114.8,304.5,121.5,302.8z"/>
	<path d="M121.6,319c20.2-0.8,40.6,0,60.9-0.3c6-1.2,10.4,6.2,5.8,10.4c-1.9,1.5-4.5,1.6-6.8,1.6c-19.4-0.1-38.7,0-58.1-0.1
		C116.6,330.7,114.9,320.9,121.6,319z"/>
	<path d="M126.1,344.3c-3-3.2,0.1-9,4.3-8.7c15.7-0.1,31.4-0.1,47.1,0c5.2-0.3,6.5,7.7,2.6,10.2c-2.7,1.9-6.5,0.1-9.3,1.6
		c-2,3.3-2.9,7.7-6.7,9.5c-9.7,3.9-25.5,2.9-26.9-10.1C133.5,346.5,128.6,348,126.1,344.3L126.1,344.3z"/>
</g>
</svg>
