<?xml version="1.0" encoding="utf-8"?>
<!-- Generator: Adobe Illustrator 26.0.1, SVG Export Plug-In . SVG Version: 6.00 Build 0)  -->
<svg version="1.1" id="Layer_1" xmlns="http://www.w3.org/2000/svg" xmlns:xlink="http://www.w3.org/1999/xlink" x="0px" y="0px"
	 viewBox="0 0 350.4 307.9" style="enable-background:new 0 0 350.4 307.9;" xml:space="preserve">
<g>
	<path d="M129.4,8.9c6.6-4.3,14.4-8,22.5-7.3c7.8,0.8,12.8,7.9,15.2,14.7c2.5,6.1,2.5,12.7,3.3,19.1c0.8,9.4-1.1,18.7-1.7,28
		c1.4,2.7,4.3,0.7,6.4,0.1c10.8-4.8,22.3-7.5,33.9-9.3c7.3-0.7,14.7-0.3,22.1-0.4c12.5-0.1,24.7,3.4,36.5,7.2
		c18.6,6.9,35.3,18.6,48.6,33.3c15.8,16.2,25.7,37.5,30.4,59.4c2.5,11.9,2.2,24.1,1.9,36.1c-1.6,14.6-5,29.2-11.5,42.5
		c-18.4,39.7-59.1,67.9-102.7,71.5c-9.9,0.1-19.8,0.7-29.6-1.1c-18-2.6-35.2-9.6-50.2-19.8c-9.4-6.8-17.8-14.9-25.5-23.5
		c-4.6-5.5-8.2-11.6-12.6-17.2c-3.3,1.5-6.7,3.4-10.4,2.9c-3.1,0.2-5.5-2.2-7.1-4.5c-5.1-7.9-7.7-17.2-13.7-24.5
		c-3.3,7.8-6.7,15.7-12.3,22.2c-8.4,9.5-18.5,17.9-30.1,23.1c-2.9,1.6-6.4-0.1-7.7-3c-3.3-6.8-4.3-14.3-5.4-21.7
		c-0.4-8-0.8-16.2,1.6-23.9c1.3-6,4.5-11.4,6.8-17.1c-8.7,0.2-16.7,4.2-25.2,5.9c-4.1,1.2-7.7-2.2-9.7-5.4c-2.9-4.3-2.1-10,0.1-14.4
		c5.7-11.6,11.6-23.2,19.8-33.2c4.5-5.4,8.5-11.6,14.8-15.2c2.8-1.7,6.2-1.1,9.3-1.8c4.3-4.3,5.2-10.8,8-16.1
		C65,95.6,73.3,74.7,85.5,56C97.4,38.1,111.4,21,129.4,8.9 M142.4,15.8c-8.1,4-16.8,8.6-21.4,16.7c6.2,3.7,12.9,6.4,19.4,9.6
		c5.7,2.5,11.1,5.7,17.1,7.5c1.9-7.9,0.8-16-0.5-23.9C156,22,155,18,152.3,15.1C149.4,12.6,145.4,14.6,142.4,15.8 M112.1,42.9
		c-1.6,0.4-2.6,1.8-3.7,3c-4.7,5.4-8.6,11.5-12.7,17.3c-10.4,15.5-17.6,32.8-25.4,49.6c-3.7,7.5-7,15.1-10.2,22.8
		c-1.6,3.7,0.6,7.5,1.6,11c3.3,9.1,4.9,18.8,8.4,27.8c3.5,4.8,10,6,14.9,8.8c7.6-3.8,14.7-8.8,22.4-12.4c2.7-1.4,5.7-2.6,7.2-5.4
		c5-8,8.9-16.6,13.5-24.8c10.2-18.6,19.3-38,24.2-58.7c1.3-6.1,4-12.2,2.9-18.6c-3.6-3.1-8.4-4.5-12.6-6.6
		c-7.9-3.9-16.1-7.1-23.9-11.1C116.6,44.6,114.5,43.4,112.1,42.9 M196.4,69.5c5.8,4.9,13.8,4.7,20.6,7.3c9.4,2.8,19.3,8.4,22.2,18.4
		c0.9,6.8,0.7,14-2.3,20.2c-1.3,2.6-4,4.7-7,4.6c-6.6,0.3-12.6-2.8-18.9-3.9c-1.5-0.2-3.4-0.7-4,1.1c-1.6,3.8-1.8,8.3-4.7,11.5
		c-2.9,3.2-6.4,6.1-10.5,7.3c-4.7,1.1-8.3-2.9-11.9-5.2c-1.5-1-3.7-2.9-5.4-1.2c-4.7,4.4-8.2,10.5-14.5,12.8
		c-5.6,2.2-11-1.5-15.9-3.6c-2.4,3.8-4.8,7.7-6.9,11.7c-3.2,6.1-7.2,11.8-10,18.1c8.2,3.2,17,4.2,25.4,6.6
		c7.5,2.1,14.6,7.2,17.2,14.7c2.3,4.5-2.1,8.3-3,12.5c2.1,7.6,8.2,14,8,22.2c0.3,4.1-1.9,8-4.4,11c-3,3.6-7.6,5.3-10.5,8.9
		c-0.5,3.6,0,7.2-0.2,10.8c-0.1,4.7-2.4,8.9-4.1,13.1c12.1,9.6,26.6,15.8,41.4,20.2c12.7,2.7,25.9,4.5,38.9,2.7
		c1.9-0.6,5-0.4,5.3-2.9c-0.2-3.7-1.1-7.5-0.3-11.3c1.5-3.8,4.8-6.5,7.7-9.2c6.3-5.5,10.5-14,10.1-22.4c0.1-3.2-2.4-5.8-5-7.5
		c-3.6-2.4-7.6-4.3-10.7-7.3c-8.3-7.3-12.5-18.4-13.2-29.2c0.1-5.3,1.8-10.6,4-15.4c3.5-7.1,9.4-13.8,17.5-15.5
		c5.3-1.5,10.6,0.9,15.9,0c2.6-0.4,5.2-0.7,7.9-0.7c7.9-0.2,15.2,3.4,22.4,6.3c6.5,2.6,11.8,7.5,15.6,13.3c2.3,3.6,1.8,8.8,5.5,11.5
		c4.3,3.2,8.8,6.3,14.1,7.5c2.5-8.2,3.8-16.7,4.1-25.2c-3.4-1.6-7.3-2.6-10-5.4c-3-4.9-3.7-11-7.6-15.4c-4.3-5.4-11.7-7.7-15.1-13.9
		c-3.2-5.6-0.2-12.4-1.8-18.3c-3.3-4.5-8.5-8.6-8.5-14.8c1-6.8,4.3-13,7.3-19.2c-15.9-15.5-36.8-25.3-58.4-29.4
		c-7.1-1.5-14.3-1-21.5-1.1C212.7,65.8,204.1,66.3,196.4,69.5 M172.6,78c-3.4,2-7.7,4.1-8.7,8.3c-3.3,11.9-7.2,23.6-12.3,34.9
		c-0.6,1.8-1.7,3.8-0.9,5.6c1.3,2,3.9,4.3,6.4,2.8c6.2-4.5,9.3-12.9,16.9-15.6c7-0.1,11.4,6.5,17.1,9.8c2-3.9,3-8.1,4.2-12.2
		c1.6-5.8,8.1-9.4,13.9-8.5c5.6,0.8,10.9,2.5,16.3,4.2c1.1-2,2.6-4.2,2.2-6.6c-0.3-4.6-4.5-7.7-8.3-9.6c-9.6-4.4-20.5-5.5-30.2-9.8
		c-3.1-1.4-5.8-3.5-8.9-5C177.6,75.1,174.9,76.8,172.6,78 M308.7,107.5c-0.8,3-3,6.1-1.9,9.3c2.9,4.2,7.4,7.6,8.6,12.8
		c0.2,3.6-1.2,7.2-1,10.8c-0.2,3.7,4.1,5.2,6.5,7.2c6.2,3.8,10,10,13.7,16c0-3.4,0.2-6.9-0.6-10.2c-3.5-15.3-10.4-29.7-19.6-42.3
		C313.1,109,311,107.9,308.7,107.5 M19.4,176.9c-2,3.2-3.5,6.6-4.4,10.3c8.2,0,15.8-3.4,23.6-5.3c5.9-2.1,12.6-2.5,17.9-6.2
		c0.5-4.7-2-9.1-3-13.7c-2.1-6.4-2.3-14.3-8.3-18.7C34.1,152.4,26.5,164.8,19.4,176.9 M117.7,179.2c-3.5,1.3-6.6,3.4-9.8,5.3
		c-5.9,3.7-12.1,6.7-17.9,10.5c3.6,10.3,9.5,19.7,14.1,29.6c1.5,2.2,2.4,7.1,6,5.2c5.8-12.4,9.5-25.8,12-39.2
		c0.4-3.3,1.1-6.8-0.1-10C121.5,178.5,119.2,178.8,117.7,179.2 M250.2,184.7c-4.8,4.1-8.5,10.3-7.8,16.8c-0.6,7.6,3.4,14.7,8.7,20
		c5.5,5.2,14.1,7.2,17.4,14.6c4,8.9,1.8,19.4-1.9,28c-2.9,7.1-9.2,11.8-14.1,17.5c2.3,2.3,5.1,5.7,8.8,4.1c18-6.9,35-17.6,47.4-32.6
		c7.9-9.2,15-19.4,19.3-30.8c-6.7-5.8-15.4-8.8-21.5-15.3c-3.1-3.1-2.6-7.8-4.5-11.5c-2.1-3.6-5.5-6.1-9.2-7.8
		c-4.7-2.2-9.7-4.1-14.8-5.2c-5.4-1.3-10.7,0.9-16.2,0.5C257.9,183.2,253.4,181.8,250.2,184.7 M137.3,184.9
		c-2.4,0.4-2.6,3.7-3.1,5.7c-1.5,9.6-3.6,19.1-7,28.2c-1.6,4.8-4.5,10.3-1.6,15.2c4.4,7.7,9.9,14.7,15.6,21.3c1.3,1.4,3,3.6,5.2,2.6
		c3.1-6.4-0.8-13.3,0.2-19.9c2.6-5.3,9.4-5.7,13.4-9.6c2.3-1.8,1.7-5,1.3-7.4c-2.1-5.6-5.9-10.5-6.8-16.6c-0.7-4.1,1.3-8,1.9-12.1
		c-0.9-2.5-3.5-3.8-5.8-4.7C146.4,186.2,141.9,184.6,137.3,184.9 M58,191.6c-9.7,8.5-16.7,20.7-16.5,33.8c-0.5,7.3,1,14.5,1.4,21.8
		c2.5-1,5.2-1.9,7.4-3.5c6.1-4.7,11.8-10.1,16.5-16.2c4.5-5.9,6.7-13.1,8.2-20.2c0.8-5,0.3-10.2,0.3-15.2c-3-1.7-5.9-3.9-9.2-4.8
		C63.1,188.1,60.4,189.7,58,191.6L58,191.6z"/>
	<path d="M109.4,73.1c6.7-1,13.9,0.4,19.1,4.9c5.3,4.2,8.3,10.7,9,17.3c0.2,9.1-5,18.3-13.3,22.3c-4.6,2.8-10.3,2.8-15.5,2.2
		c-8.6-2.1-16-9.1-18-17.7c-0.5-5.4-1-11.3,1.8-16.2C95.7,79.3,102.2,74.4,109.4,73.1 M110.4,85.7c-4,1.7-8,5.2-8,9.9
		c-0.7,7.1,6.6,13.6,13.6,12.3c4.9-1.4,9-6.2,8.7-11.4C125.3,89.4,117,82.8,110.4,85.7L110.4,85.7z"/>
</g>
</svg>
