<?xml version="1.0" encoding="utf-8"?>
<!-- Generator: Adobe Illustrator 26.0.1, SVG Export Plug-In . SVG Version: 6.00 Build 0)  -->
<svg version="1.1" id="Layer_1" xmlns="http://www.w3.org/2000/svg" xmlns:xlink="http://www.w3.org/1999/xlink" x="0px" y="0px"
	 viewBox="0 0 396.9 396.8" style="enable-background:new 0 0 396.9 396.8;" xml:space="preserve">
<g>
	<path d="M289.4,2.1c44.9-5.5,87.4,29.5,93.6,73.7c2.8,0.5,4-2.3,5.7-3.9c3.2-3.4,8.8,0.4,5.8,4.4c-2,2.8-4.7,5.1-6.9,7.7
		c-2.8,2.8-6.4,9.3-10.8,5.4c-4.6-4-10-7.3-14-12.1c-1.1-3,2.1-6.2,5-4.4c2.2,1.5,3.8,3.7,6.3,4.9c3.3-2.8-2.1-15-3.3-18.8
		c-3.3-8.5-7.9-16.4-13.9-23.3c-39.1-45.4-115.6-30.3-133.8,27c-0.7,3.1-4.3,6.6-6.8,3c-2.8-3.4,4-15.1,5.7-19
		C235.2,22.2,261.3,4.2,289.4,2.1z"/>
	<path d="M102.4,2.2c10.1-1.4,12.5,3.5,16.9,11.1c5.4,2.9,11.6,3.9,16.7,7.5c8.2,4.3,14.4,12,19.4,19.7c5.2,7.8,2.4,10.8,12.2,14.4
		c10.7,6.9,4.8,20.4-6.6,21.9c0.1,2.6,2,4.7,2.5,7.2c2.4,7.3-0.8,15.7-6.7,20.4c-2.7,2.6-8.3,3-8.9,7.4c-0.8,9.9-5.4,19.2-13.1,25.5
		c-3.1,2.9-8.9,4-8.4,9.2c0.7,8.1-3.1,13.4,8,13.1c15.3,3,29.2,11.3,38.9,23.5c1.2,1.5,2.6,2.9,3.4,4.6c1,3-1.8,6.6-4.6,3.8
		c-7.4-9-15.8-17.8-27.1-21.9c-3-1.4-6.1-0.7-6.9,2.8c-4,9.5-6.5,19.9-11.8,28.7c-2.4,0.5-4.2-1.6-6.5-1.5c-0.8,3-3.3,5.6-2.9,8.8
		c1,2.6,2.6,5,2.7,7.9c0,12.1,0,24.1,0,36.2c0.1,7.8-4.4,10.8-10,14.8c-1.3,9.3,0,19.5-0.5,29c-0.1,1.6,1.4,3.1,3,3
		c7.9,0,15.8,0,23.8,0c1.7,0.3,3-1.4,3-3c0-27.6,0-55.2,0-82.8c0.3-5.4,4.9-10,10.3-10.3c27.5,0,54.9,0,82.4,0
		c5.9,0.3,10.6,6.4,10.2,12.1c-0.8,26.7-0.2,53.8-0.3,80.5c0.4,1.5,1.3,3.2,3,3.4c2.8,0,8.1,1.1,8.3-3c0-27.4,0-54.9,0-82.3
		c-0.3-5.2,4.1-9.8,9.1-10.7c116.8,4,90.4-26.1,93.4,91.7c0,5.3,4.5,4,8,4.6c3.8,1.1,7.8,2.2,11.2,4.2c15.6,8.3,23,25.4,19.5,42.6
		c-3.3,13.8-14.3,24.4-27.8,28.4c-0.8,0.4-1.5,1.1-1.8,2c0.9,7.8-4.4,16.4-12.7,16.7c-99,0.1-198.1-0.3-297.2,0.1
		c-8.3,1.4-18.6-0.9-20.9-10.2c-0.9-2.3,0.2-5-1-7.2c-2-2.9-6.3-2.8-9.1-4.6c-5.6-3-10.7-6.6-13.9-12.1
		c-10.5-14.2-8.9-35.1,3.1-47.9c3.1-4.3,11-5.9,11.4-11.6c0-21.7,0-43.3,0-65c-3.6-36.8,16.4-68.4,53.5-76c2.8-0.1,7.3,0,6.9-4
		c-0.1-3.5,0.1-7-0.1-10.5c-0.7-2-2.6-3.1-4.3-4.3c-7.6-4.7-13.4-12.2-15.9-20.8c-1.7-7.2,0.3-10-7.9-13.5
		c-9.7-5.5-12.2-18.7-6.5-27.9c-0.4-4-7.3-0.1-11.1-9.6c-2.3-5.3,0.3-12.2,5.4-14.8c2.1-1.2,4.7-1.6,6-3.8c1.5-2.6,2.5-5.4,4-7.9
		C61.7,27.9,76,18.9,91,13.8C95.6,9.6,94.2,4.6,102.4,2.2 M103.7,9.4c-1.9,1-3.7,2.9-3.5,5.2c-0.9,7,2.3,31.1-2.3,34
		c-2.8,2-5.6-2.1-5.4-4.7c0.1-7.1-0.1-14.1,0.1-21.2c-3.2-3.2-10.6,2.8-14.2,4.1c-8.1,5.1-14.6,12.5-19,20.9
		c-0.7,1.4-0.7,3.9,1.3,4.1c11,0,22,0,33,0c17.5-0.1,35.1,0.1,52.6,0c2,0,4.2,0.3,5.8-1c-1-8.4-9.5-16.1-15.6-21.6
		c-5.2-3.2-10.7-7.2-16.9-7.8c-0.4,0.4-0.8,0.8-1.1,1.2c0.1,7.2,0,14.4,0.1,21.6c0.1,2.3-2.1,5.1-4.6,4.7c-2.1-0.9-3.3-3.4-3.2-5.6
		c0-9.8,0-19.5,0-29.3C110.8,10.6,106.9,8.6,103.7,9.4 M49.1,59.2c-8.6,3.6-4.3,10.8,3.8,11c35.2,0,70.5,0,105.7,0
		c5.4,0,10.9-4.4,6.2-9.6c-2.2-1.9-5.3-1.8-8.1-1.7C120.9,59.2,84.9,58.3,49.1,59.2 M64,76.7c-10.7,2.9-13.4,17.2-3.7,23.1
		c2.2,1.6,5.1,1.4,7.6,2.5c3.9,2.7,1.2,8.2,2.6,12c1.9,12.1,12,22,24.2,23.6c5.8,0.1,11.5,0,17.3,0.1c16.9,1.1,30.7-15.3,28.7-31.7
		c1.4-8.2,11.6-1.2,16.3-14.4c1.5-6.8-3.6-13.7-10.2-15.2C119.1,76.6,91.5,76.4,64,76.7 M92.9,144.9c-1,0.3-1.8,1.3-1.8,2.4
		c0,4.9-0.1,9.7,0,14.6c1.9,11.7,17,16.6,25.1,7.5c5-5.5,3.4-13.5,3.7-20.4c0.2-5.7-4.2-4.1-8-3.8
		C105.6,145.5,99.2,145.1,92.9,144.9 M125.3,167c-2.9,6.2-6.2,9-11.9,12.5c-0.1,2.6,2.2,4.2,3.8,5.9c2.3,1.9,6,8.5,7.8,2.6
		c2-5.2,3.9-10.4,6-15.6c0.6-1.7,2-3.3,1.6-5.2C131,165.1,126.9,164.4,125.3,167 M78.3,166.8c-0.2,2.7,1.4,5,2.1,7.6
		c2,5.2,3.4,10.6,5.8,15.7c3.2,0.3,4.7-3.1,6.9-4.9c1.6-1.7,3.7-3.2,4.1-5.6c-2.2-2-5.1-3.2-7-5.5C85.9,169.8,86.1,162.9,78.3,166.8
		 M66.8,169.5c-20.7,8.1-34.8,28.5-36.5,50.5c0,25.7,0,51.5,0,77.3c0.1,5.4,6.1,1.9,9.3,2.1c3-0.7,13.5,2,13.1-2.6
		c0-26.4,0-52.8,0-79.1c-0.1-1.3,0.9-2.4,1.5-3.4c1.2,0,2.5-0.1,3.7,0.1c0.8,0.7,1.8,1.7,1.6,2.9c0,26.4,0,52.7,0,79.1
		c-0.1,2.2,2.4,3.5,4.4,3.4c11.9,0,23.7,0.1,35.6-0.4c1.4,0.2,2.7-1.1,2.5-2.5c0-9.8,0-19.6,0-29.5c-5.6-2.9-11-8-10.5-14.8
		c0-12.4,0-24.7,0-37.1c3.3-10.7,4.1-5.5-0.7-16.8c-5.3,0.5-5.8,7.5-10.1-3c-3.4-8.9-5.6-18.2-9.9-26.7
		C69.5,169,68.1,169,66.8,169.5 M103.9,184.2c-4.5,2.5-6.1,7.4-5.5,12.3c-0.2,6.6,4,6.7,9.3,6.4c5.1,0,5.1-6,4.9-9.8
		C112.8,189.8,107.6,182.8,103.9,184.2 M103.4,210.5c-3.5,1-5,4.8-5,8.2c0.1,11.1,0,22.3,0,33.4c0.5,11.2,14.1,10.3,14.2-0.4
		c0-11.3,0-22.6,0-33.9C112.4,213.1,108.1,208.8,103.4,210.5 M186.1,210.5c-1.6,0.3-3.7,1.1-3.5,3.1c0,7.5,0,15,0,22.5
		c-0.6,6.2,8.4,5.1,12.3,4.3c1.8-0.8,2.4-3,2.3-4.8c-0.1-7.3,0-14.7,0-22C196.2,208.9,189.7,210.2,186.1,210.5 M299.1,210.7
		c-4.3,0.7-2.1,6-2.2,8.9c0,4.1,0,8.2,0,12.4c-0.2,2.5-1.2,5.3,0.6,7.4c1.6,1.9,4.3,1.4,6.5,1.5c3.1,0.3,7.5-0.1,7.1-4.3
		c0-7.6,0-15.3,0-22.9C310.1,208.1,302.9,211.2,299.1,210.7 M145.9,214.5c0,27.2,0,54.3,0,81.5c-0.1,1.2,0.8,2.1,1.5,3
		c28.4,0,56.8,0,85.2,0c0.4-0.4,0.8-0.8,1.1-1.2c0.1-28.4,0-56.8,0-85.2c-1.2-0.9-2.4-2.1-3.9-2c-7.5,0-15,0-22.4,0
		c-1.2-0.1-2.1,0.8-3,1.5c0,10.2,0,20.5,0,30.7c-0.4,6.8-9.7,5.2-14.5,4.8c-5.3-0.8-14.3,2.8-14.3-5.3c-0.2-10.2,0.3-20.4-0.2-30.5
		c-0.7-0.8-1.7-1.4-2.8-1.2c-7.5,0-15,0-22.4,0C148.2,210.5,145.6,212.1,145.9,214.5 M262.4,210.7c-1.8,0.5-3.2,2.3-3.1,4.2
		c0.1,27.3-0.2,54.6,0.1,81.9c0.6,1.3,1.7,2.8,3.3,2.6c27.2,0,54.3,0,81.5,0c1.6,0.1,3.8-0.8,3.8-2.6c0-27.3,0-54.5,0-81.8
		c0.3-2.4-2.1-4.4-4.3-4.3c-7.5,0-15,0-22.5,0c-2.2-0.4-4,1.2-3.8,3.4c-1.6,38.2,9.1,33.5-23.6,33.6c-2.1,0.1-4.6-1.6-4.3-3.9
		c0-10.1,0-20.1,0-30.2c0.1-1.7-1.7-3.3-3.4-3C278.3,210.7,270.3,210.5,262.4,210.7 M37.1,306.7c-31.8,4.1-37.9,46.8-8.6,59.9
		c8.9,3.8,18.8,2,28.1,2.7c101-0.4,202.2,0.8,303.2-0.6c8.1-0.8,15.8-5,20.7-11.5c18.5-23.7-2.1-55.1-31.2-50.9
		c-35,0.9-70.2-0.2-105.2,0.3C174.9,306.5,106.2,306.6,37.1,306.7 M41.2,376.3c-0.4,0.2-0.8,0.4-1.2,0.6c-1.2,4.7,1.8,9.9,6.9,9.9
		c101.1,0,202.2,0,303.3,0c4.6-0.1,9.4-7.2,5.1-10.5C251.1,375.6,145.6,375.3,41.2,376.3L41.2,376.3z"/>
	<path d="M284.8,32.9c3.1-2.5,7.3-1.3,11-1.6c3.5,0.3,7.3-0.8,10.6,1c3.7,2,0.6,6.9,2.8,9.6c2.6,1.5,7.5,4.5,10.5,3.9
		c9.5-9.6,7.6-3.6,16.1,1.4c2.7,0.2,5.2-1.4,8-0.8c4.6,1.2,8.8,4.5,10.4,9.1c3.9,10.8-6.8,13.8-7,18.8c2,1.7,5.3,2.4,4.6,5.7
		c-0.1,4.9,0,9.8,0,14.7c0.1,1.9-1.4,3.4-3,4.2c-2.3,0.4-4.8-0.6-6.8,0.8c-2.6,2.7-4.4,6.8-4.9,10.5c1.3,3.4,7.6,6.3,4.1,10.3
		c-4.6,4.3-8.5,9.8-14,12.8c-6.9-0.3-4.2-8.7-14.3-3.2c-1.6,0.7-3.6,1.1-4.5,2.8c0,4.8,0.4,9.5-5.8,10c-5.1,0.3-10.1-0.5-15.1-0.4
		c-4.6-0.8-3.7-6.1-3.9-9.5c-2.3-2.7-6.4-3.6-9.5-5c-4.1-0.5-5.4,6.3-9.8,5.4c-2.9-1.4-4.8-4.2-7.2-6.3c-2.7-2.9-6.1-5.3-7.9-8.9
		c0.9-3.9,6.6-5.6,5.5-9.8c-1.4-3.4-2.6-9.1-7.1-9.2c-2.9,0.3-7.2-0.2-7.5-3.9c0-5.5,0-11,0-16.5c0.5-4.4,6.3-3.7,9.5-3.9
		c2-1.2,2.8-3.4,3.7-5.4c5.6-8.3-7.9-9.1-2.3-16c4.3-4.6,8.6-9.6,14-12.9c8,4.5,5,8.6,15.5,3C286.2,41.8,281.8,36.3,284.8,32.9
		 M292.4,38.4c-2.2,1.4-1.8,4.2-1.9,6.5c-0.6,2.3-2.8,3.6-4.9,4.1c-3.6,1-7,2.4-10.2,4.4c-1.3,0.9-2.9,1.1-4.4,0.8
		c-2.8-1.9-5.1-7-8.6-2.9c-6.4,5.7-2.7,6,0.6,11.4c0.5,2.6-1.3,4.7-2.4,6.8c-1.7,2.8-2,6.1-3.3,9.1c-1.8,5.3-7.7,1.1-10.2,4.4
		c0.2,2.8-1.4,7.7,1.6,9.1c2.3,1.2,5.4-0.6,7.2,1.5c2.3,2.7,2.5,6.4,4,9.4c1.2,2.9,3.8,5.5,3,8.8c-4.4,5.7-7.1,5.3-0.1,11
		c5.7,4.9,5.5-8.3,14.5-1.2c3.1,1.9,6.8,2.6,10.1,4c5.9,2-0.2,10.3,7.4,10.3c1.9,0,4.3,0.4,5.7-1.3c1.9-2.1-0.2-5.3,1.8-7.4
		c3.5-3,8.8-3.1,12.7-5.7c1.6-0.8,3.1-2.1,5-2.1c6.8,4,6.1,7.2,12.6-0.6c1.3-3.9-5-5.1-4-9c1.2-3.1,3.2-5.9,4.3-9
		c2.3-6.8,1.9-9.2,10-8.9c3.3-2.2,3.2-10-1.3-10.4c-7.6-0.4-28.9,30.3-38,33c-8.2,1.9-13.7-0.5-19.1-6.7c-3.1-3-5.8-6.4-9-9.3
		c-3-3.1-6.7-6.1-7.7-10.6c-3.1-9.8,8.3-20,17.6-15.2c5.6,1.2,11.1,14.2,16,9c8.7-8.8,17.5-17.6,26.3-26.3c2.2-2,1.7-4.5-0.7-6.1
		c-11.5,9.2-5.1,3.2-21.4-0.9C296.3,45.4,307.8,36.2,292.4,38.4 M340.8,53.4c-3.1,0.8-5.2,3.3-7.3,5.4c-10.5,10.5-21,21.1-31.6,31.5
		c-1.3,1.5-3.4,1.7-5.2,1.3c-5.5-3.7-9-10.5-15.3-13.1c-4.1-1-8,3.3-7.3,7.3c0.8,2.8,3,4.8,5,6.7c4.4,4.4,8.8,8.9,13.3,13.3
		c4.7,5,10.8,2.3,14.5-2.3c12.7-12.8,25.4-25.5,38.2-38.2C350.7,61.4,347.8,52.6,340.8,53.4L340.8,53.4z"/>
	<path d="M208.9,88.9c1.8-2.1,3.6-4.4,6.3-5.5c5.3,2.4,9.1,7.1,13.9,10.3c1.4,1.2,3.2,2.6,2.9,4.7c0.2,1.4-1,2.5-2.1,3
		c-4.2,0.5-5.8-4.9-9.8-5.2c1.6,41.2,44,73.3,84.1,69.1c19.8-1.6,39-11.1,52-26.1c6.9-7.5,12.1-16.5,15.5-26c0.7-1.9,1.4-4,3-5.4
		c0.9,0,1.8,0,2.7,0c1.5,1.3,2.4,3.2,1.7,5.2c-5.4,15.7-14.7,30.2-27.8,40.5c-52.3,42.1-129.7,10.2-139-55.8
		c-3.3,0.2-4.9,3.9-7.3,5.7c-4.2,0.7-6-3.1-3.2-6.1C204,94.3,206.6,91.7,208.9,88.9L208.9,88.9z"/>
	<path d="M265.7,316.3c27.6-2.3,33.9,35.8,7,42.6C244.1,363.1,236.9,322,265.7,316.3 M265.3,323.5c-17.6,5.6-12.5,30.7,5.9,28.4
		C290.3,347.6,284.3,319.8,265.3,323.5L265.3,323.5z"/>
	<path d="M335.3,316.4c26.6-3.9,36.1,32.4,10.8,41.6C317.1,366.8,305.5,323.6,335.3,316.4 M336.1,323.6c-17.3,4.9-12.9,29.7,5,27.9
		c6-0.3,12.2-6.5,12.2-12.6C354.6,329.5,345.2,321.8,336.1,323.6L336.1,323.6z"/>
	<path d="M55.3,316.5c27.4-1.7,32.8,36.9,5.7,42.6C32.2,361.9,26.3,321.6,55.3,316.5 M54.5,323.4c-19.3,5-12.6,32.8,6.8,28.7
		C79.6,346.9,73.1,319.9,54.5,323.4L54.5,323.4z"/>
	<path d="M124.4,316.6c11.2-2.4,23,6.3,24.9,17.4c2.8,13.7-10.7,27.5-24.5,24.9C101.4,354.3,100.8,321.6,124.4,316.6 M126.3,322.9
		c-18.1,3.3-16.3,28.7,2,29.8C149.2,350.6,146.8,321.6,126.3,322.9L126.3,322.9z"/>
	<path d="M195.7,316.4c32.4-1.9,31.4,45.7-1,42.4C170.8,353.7,171.6,320.6,195.7,316.4 M194.5,323.4c-21.5,7.5-7.4,37.8,11.9,26.6
		C220.6,340.8,210.6,319.6,194.5,323.4L194.5,323.4z"/>
</g>
</svg>
